<svg id="_图层_" data-name="&lt;图层&gt;" xmlns="http://www.w3.org/2000/svg" viewBox="0 0 880.16 248.92"><defs><style>.cls-1,.cls-2{fill:#69f;}.cls-2{font-size:120.39px;font-family:ProximaSansMedium, ProximaSansMedium;}</style></defs><title>Alpha</title><path class="cls-1" d="M210.15,501.21l35.66-35.67a31.61,31.61,0,0,0,0-44.58h0a31.61,31.61,0,0,0-44.58,0l-35.66,35.67L129.9,421a31.61,31.61,0,0,0-44.58,0h0a31.61,31.61,0,0,0,0,44.58L121,501.21h0l13.37,13.37h0l17.83,17.83-35.66,35.67a12.65,12.65,0,0,1-17.83,0h0a12.63,12.63,0,0,1,0-17.83L129.9,519l-13.37-13.37-31.21,31.2a31.61,31.61,0,0,0,0,44.58h0a31.61,31.61,0,0,0,44.58,0l35.67-35.66,35.66,35.66a31.61,31.61,0,0,0,44.58,0h0a31.61,31.61,0,0,0,0-44.58Zm-111.45-49a12.63,12.63,0,0,1,0-17.83h0a12.63,12.63,0,0,1,17.83,0L152.19,470l-17.83,17.83ZM232.44,568.08h0a12.66,12.66,0,0,1-17.84,0l-35.66-35.67L192.31,519l-13.37-13.37L165.57,519l-17.84-17.83,66.87-66.87a12.64,12.64,0,0,1,17.84,0h0a12.65,12.65,0,0,1,0,17.83l-35.67,35.66L183.4,474.46,170,487.83l62.42,62.42A12.65,12.65,0,0,1,232.44,568.08Z" transform="translate(-76.13 -341.73)"/><path class="cls-1" d="M388,470.21q12.21,10.64,15.22,31.71H385.8q-2.39-12.76-10.46-19.13-7.93-6.56-21.56-6.55-16.48,0-26.16,12.57-10.31,13.11-10.3,36.66,0,23,9.35,35.07,10,13.28,31.23,13.28a56.18,56.18,0,0,0,15.69-2.3,42.76,42.76,0,0,0,12.68-6.2V537.87H355.05V521.4h48.5v53.13a61.55,61.55,0,0,1-20.44,11.87A83,83,0,0,1,356,590.65q-27,0-42-19.13-14-17.71-13.95-46Q300,497,314,478.72q14.58-19.49,39.79-19.49Q375.65,459.23,388,470.21Z" transform="translate(-76.13 -341.73)"/><path class="cls-1" d="M651.29,459.23h18.27v50.3a31.13,31.13,0,0,1,27.59-15.41q16,0,24.31,9.74,7.75,9.21,7.75,27.46v56.85H710.94V534.5q0-11.87-4.83-18.42-5.18-6.54-15.69-6.55a17.85,17.85,0,0,0-15,7.62q-5.85,7.62-5.86,19.66v51.36H651.29Z" transform="translate(-76.13 -341.73)"/><path class="cls-1" d="M813.18,504.22q7.92,8.85,7.92,25.5v58.45H804.59V575.24a39.08,39.08,0,0,1-12.8,11.16,44.73,44.73,0,0,1-20,4.25q-13.49,0-21.39-7.26-8.08-7.44-8.09-19.66,0-17.36,13-25.68Q766.19,531,783.87,531l19.54-.18v-2.3q0-19.12-19.7-19.13-9.27,0-14.15,3.55-5.89,4.07-6.91,12H745q2-16.29,13.13-24.09,9.43-6.72,26.79-6.73Q804.09,494.12,813.18,504.22Zm-9.77,40.91-18.36.18q-24.42,0-24.42,17.89a11.7,11.7,0,0,0,3.87,9q3.88,3.54,11.29,3.54,12,0,20-7.09,7.59-7.24,7.58-18.77Z" transform="translate(-76.13 -341.73)"/><path class="cls-1" d="M853.1,463.48a11.69,11.69,0,0,1,3.65,9,12.71,12.71,0,0,1-3.82,9.21,13.34,13.34,0,0,1-18.1,0,12.62,12.62,0,0,1-3.66-9.21,11.7,11.7,0,0,1,3.66-9,12.12,12.12,0,0,1,9-3.54A12.34,12.34,0,0,1,853.1,463.48ZM834.65,496.6H853.1v91.57H834.65Z" transform="translate(-76.13 -341.73)"/><path class="cls-1" d="M947.87,531.67v56.5H930V533.26q0-23.37-20.44-23.37a17.73,17.73,0,0,0-13.35,5.66q-6.25,6.56-7.26,17.54v55.08H871V496.6h17.91v11.34a33.69,33.69,0,0,1,11.65-10.27,29.35,29.35,0,0,1,14.7-3.55Q947.87,494.12,947.87,531.67Z" transform="translate(-76.13 -341.73)"/><path class="cls-1" d="M420.26,459.27h21.48l28.11,47.06L498,459.27h21.48L480.35,522.2l41.84,67.3H500.7l-30.85-51.62L439,589.5H417.51L459,522.2Z" transform="translate(-76.13 -341.73)"/><path class="cls-1" d="M620.54,470.48q12.48,11,15.19,29.94h-17q-2.88-12.71-11-18.63-8-5.91-20.48-5.92-18.56,0-27.83,13.76-8.79,12.36-8.8,34.29,0,22.29,8.64,34.65,9.12,13,28.31,13,12.64,0,20.8-6.79,8.64-7.3,12-21.93h17q-3.84,21.76-17.91,33.94-13.12,11.49-31.67,11.49-28,0-42.24-19.49-12.32-16.55-12.31-44.92,0-27.85,12.79-45.09,14.24-19.66,41.59-19.67Q607.74,459.16,620.54,470.48Z" transform="translate(-76.13 -341.73)"/><text class="cls-2" transform="translate(573.76 100.35)">alpha</text></svg>